<svg xmlns="http://www.w3.org/2000/svg" xmlns:xlink="http://www.w3.org/1999/xlink" width="100" zoomAndPan="magnify" viewBox="0 0 75 74.999997" height="100" preserveAspectRatio="xMidYMid meet" version="1.0"><defs><g/><clipPath id="9bec4815ab"><path d="M 0 3.09375 L 75 3.09375 L 75 75 L 0 75 Z M 0 3.09375 " clip-rule="nonzero"/></clipPath></defs><g clip-path="url(#9bec4815ab)"><path fill="#ffffff" d="M 71.246094 35.363281 C 69.652344 35.363281 68.285156 36.363281 67.746094 37.773438 L 54.890625 37.773438 L 54.890625 30.808594 L 61.316406 30.808594 C 61.859375 32.21875 63.222656 33.21875 64.820312 33.21875 C 66.886719 33.21875 68.570312 31.539062 68.570312 29.46875 C 68.570312 27.402344 66.886719 25.71875 64.820312 25.71875 C 63.222656 25.71875 61.859375 26.722656 61.316406 28.128906 L 54.890625 28.128906 C 54.84375 23.75 51.265625 20.195312 46.875 20.195312 L 46.875 17.703125 C 48.28125 17.164062 49.285156 15.796875 49.285156 14.203125 C 49.285156 12.136719 47.601562 10.453125 45.535156 10.453125 C 43.46875 10.453125 41.785156 12.136719 41.785156 14.203125 C 41.785156 15.796875 42.789062 17.164062 44.195312 17.703125 L 44.195312 20.195312 L 37.230469 20.195312 L 37.230469 10.34375 C 38.640625 9.804688 39.644531 8.4375 39.644531 6.84375 C 39.644531 4.777344 37.960938 3.09375 35.894531 3.09375 C 33.824219 3.09375 32.144531 4.777344 32.144531 6.84375 C 32.144531 8.4375 33.144531 9.804688 34.554688 10.34375 L 34.554688 20.195312 L 27.589844 20.195312 L 27.589844 16.097656 C 28.996094 15.558594 30 14.191406 30 12.597656 C 30 10.527344 28.320312 8.847656 26.25 8.847656 C 24.183594 8.847656 22.5 10.527344 22.5 12.597656 C 22.5 14.191406 23.503906 15.558594 24.910156 16.097656 L 24.910156 20.195312 L 24.367188 20.195312 C 19.972656 20.195312 16.394531 23.746094 16.347656 28.128906 L 13.683594 28.128906 C 13.140625 26.722656 11.777344 25.71875 10.179688 25.71875 C 8.113281 25.71875 6.429688 27.402344 6.429688 29.46875 C 6.429688 31.539062 8.113281 33.21875 10.179688 33.21875 C 11.777344 33.21875 13.140625 32.21875 13.683594 30.808594 L 16.347656 30.808594 L 16.347656 37.773438 L 7.253906 37.773438 C 6.714844 36.363281 5.347656 35.363281 3.753906 35.363281 C 1.683594 35.363281 0.00390625 37.042969 0.00390625 39.113281 C 0.00390625 41.179688 1.683594 42.863281 3.753906 42.863281 C 5.347656 42.863281 6.714844 41.859375 7.253906 40.453125 L 16.347656 40.453125 L 16.347656 47.414062 L 10.46875 47.414062 C 9.925781 46.007812 8.5625 45.003906 6.964844 45.003906 C 4.898438 45.003906 3.214844 46.6875 3.214844 48.753906 C 3.214844 50.820312 4.898438 52.503906 6.964844 52.503906 C 8.5625 52.503906 9.925781 51.5 10.46875 50.09375 L 16.386719 50.09375 C 16.777344 54.152344 20.207031 57.332031 24.367188 57.332031 L 24.910156 57.332031 L 24.910156 62.929688 C 23.503906 63.46875 22.5 64.835938 22.5 66.429688 C 22.5 68.5 24.183594 70.179688 26.25 70.179688 C 28.320312 70.179688 30 68.5 30 66.429688 C 30 64.835938 28.996094 63.46875 27.589844 62.929688 L 27.589844 57.332031 L 34.554688 57.332031 L 34.554688 67.75 C 33.144531 68.289062 32.144531 69.65625 32.144531 71.253906 C 32.144531 73.320312 33.824219 75 35.894531 75 C 37.960938 75 39.644531 73.320312 39.644531 71.253906 C 39.644531 69.65625 38.640625 68.289062 37.230469 67.75 L 37.230469 57.332031 L 44.195312 57.332031 L 44.195312 64.535156 C 42.789062 65.078125 41.785156 66.441406 41.785156 68.039062 C 41.785156 70.105469 43.46875 71.789062 45.535156 71.789062 C 47.601562 71.789062 49.285156 70.105469 49.285156 68.039062 C 49.285156 66.441406 48.28125 65.078125 46.875 64.535156 L 46.875 57.332031 C 51.03125 57.328125 54.457031 54.148438 54.851562 50.09375 L 59.710938 50.09375 C 60.25 51.5 61.617188 52.503906 63.210938 52.503906 C 65.28125 52.503906 66.960938 50.820312 66.960938 48.753906 C 66.960938 46.6875 65.28125 45.003906 63.210938 45.003906 C 61.617188 45.003906 60.25 46.007812 59.710938 47.414062 L 54.890625 47.414062 L 54.890625 40.449219 L 67.746094 40.449219 C 68.285156 41.859375 69.652344 42.859375 71.246094 42.859375 C 73.316406 42.859375 74.996094 41.179688 74.996094 39.109375 C 74.996094 37.042969 73.316406 35.363281 71.246094 35.363281 Z M 64.820312 28.398438 C 65.410156 28.398438 65.890625 28.878906 65.890625 29.46875 C 65.890625 30.0625 65.410156 30.542969 64.820312 30.542969 C 64.230469 30.542969 63.75 30.0625 63.75 29.46875 C 63.75 28.878906 64.230469 28.398438 64.820312 28.398438 Z M 35.894531 5.773438 C 36.484375 5.773438 36.964844 6.253906 36.964844 6.84375 C 36.964844 7.433594 36.484375 7.914062 35.894531 7.914062 C 35.300781 7.914062 34.820312 7.433594 34.820312 6.84375 C 34.820312 6.253906 35.300781 5.773438 35.894531 5.773438 Z M 26.25 11.523438 C 26.839844 11.523438 27.320312 12.003906 27.320312 12.597656 C 27.320312 13.1875 26.839844 13.667969 26.25 13.667969 C 25.660156 13.667969 25.179688 13.1875 25.179688 12.597656 C 25.179688 12.003906 25.660156 11.523438 26.25 11.523438 Z M 10.179688 30.542969 C 9.589844 30.542969 9.109375 30.0625 9.109375 29.46875 C 9.109375 28.878906 9.589844 28.398438 10.179688 28.398438 C 10.769531 28.398438 11.25 28.878906 11.25 29.46875 C 11.25 30.0625 10.769531 30.542969 10.179688 30.542969 Z M 3.753906 40.183594 C 3.160156 40.183594 2.679688 39.703125 2.679688 39.113281 C 2.679688 38.519531 3.160156 38.039062 3.753906 38.039062 C 4.34375 38.039062 4.824219 38.519531 4.824219 39.113281 C 4.824219 39.703125 4.34375 40.183594 3.753906 40.183594 Z M 6.964844 49.824219 C 6.375 49.824219 5.894531 49.34375 5.894531 48.753906 C 5.894531 48.164062 6.375 47.683594 6.964844 47.683594 C 7.558594 47.683594 8.039062 48.164062 8.039062 48.753906 C 8.039062 49.34375 7.558594 49.824219 6.964844 49.824219 Z M 26.25 67.503906 C 25.660156 67.503906 25.179688 67.023438 25.179688 66.433594 C 25.179688 65.839844 25.660156 65.359375 26.25 65.359375 C 26.839844 65.359375 27.320312 65.839844 27.320312 66.433594 C 27.320312 67.023438 26.839844 67.503906 26.25 67.503906 Z M 35.894531 72.324219 C 35.300781 72.324219 34.820312 71.84375 34.820312 71.253906 C 34.820312 70.660156 35.300781 70.179688 35.894531 70.179688 C 36.484375 70.179688 36.964844 70.660156 36.964844 71.253906 C 36.964844 71.84375 36.484375 72.324219 35.894531 72.324219 Z M 45.535156 13.132812 C 46.125 13.132812 46.605469 13.613281 46.605469 14.203125 C 46.605469 14.792969 46.125 15.273438 45.535156 15.273438 C 44.945312 15.273438 44.464844 14.792969 44.464844 14.203125 C 44.464844 13.613281 44.945312 13.132812 45.535156 13.132812 Z M 45.535156 69.109375 C 44.945312 69.109375 44.464844 68.628906 44.464844 68.039062 C 44.464844 67.449219 44.945312 66.96875 45.535156 66.96875 C 46.125 66.96875 46.605469 67.449219 46.605469 68.039062 C 46.605469 68.628906 46.125 69.109375 45.535156 69.109375 Z M 63.210938 47.683594 C 63.804688 47.683594 64.285156 48.164062 64.285156 48.753906 C 64.285156 49.34375 63.804688 49.824219 63.210938 49.824219 C 62.621094 49.824219 62.140625 49.34375 62.140625 48.753906 C 62.140625 48.164062 62.621094 47.683594 63.210938 47.683594 Z M 71.246094 40.183594 C 70.65625 40.183594 70.175781 39.703125 70.175781 39.113281 C 70.175781 38.519531 70.65625 38.039062 71.246094 38.039062 C 71.839844 38.039062 72.320312 38.519531 72.320312 39.113281 C 72.320312 39.703125 71.839844 40.183594 71.246094 40.183594 Z M 71.246094 40.183594 " fill-opacity="1" fill-rule="nonzero"/></g><path fill="#000000" d="M 37.691406 30.46875 L 31.542969 47.058594 L 35.574219 47.058594 C 35.574219 47.058594 36.589844 44.316406 36.589844 44.316406 L 42.890625 44.316406 C 42.890625 44.316406 43.925781 47.058594 43.925781 47.058594 L 47.964844 47.058594 C 47.964844 47.058594 41.808594 30.46875 41.808594 30.46875 Z M 37.820312 40.976562 L 39.765625 35.828125 L 41.65625 40.976562 Z M 37.820312 40.976562 " fill-opacity="1" fill-rule="nonzero"/><path fill="#000000" d="M 25.175781 30.46875 L 29.132812 30.46875 L 29.132812 47.058594 L 25.175781 47.058594 Z M 25.175781 30.46875 " fill-opacity="1" fill-rule="nonzero"/><g fill="#000000" fill-opacity="1"><g transform="translate(35.273436, 42.396869)"><g><path d="M 1.65625 0 L 1.59375 -0.3125 L 1.578125 -0.3125 C 1.472656 -0.175781 1.367188 -0.0820312 1.265625 -0.03125 C 1.160156 0.0195312 1.023438 0.046875 0.859375 0.046875 C 0.648438 0.046875 0.484375 -0.0078125 0.359375 -0.125 C 0.242188 -0.238281 0.1875 -0.394531 0.1875 -0.59375 C 0.1875 -1.019531 0.53125 -1.242188 1.21875 -1.265625 L 1.578125 -1.28125 L 1.578125 -1.421875 C 1.578125 -1.585938 1.539062 -1.707031 1.46875 -1.78125 C 1.40625 -1.863281 1.289062 -1.90625 1.125 -1.90625 C 0.945312 -1.90625 0.75 -1.851562 0.53125 -1.75 L 0.421875 -2 C 0.523438 -2.050781 0.640625 -2.09375 0.765625 -2.125 C 0.890625 -2.15625 1.019531 -2.171875 1.15625 -2.171875 C 1.40625 -2.171875 1.59375 -2.113281 1.71875 -2 C 1.84375 -1.894531 1.90625 -1.71875 1.90625 -1.46875 L 1.90625 0 Z M 0.921875 -0.234375 C 1.128906 -0.234375 1.289062 -0.285156 1.40625 -0.390625 C 1.519531 -0.503906 1.578125 -0.660156 1.578125 -0.859375 L 1.578125 -1.046875 L 1.25 -1.046875 C 0.988281 -1.035156 0.800781 -0.992188 0.6875 -0.921875 C 0.582031 -0.847656 0.53125 -0.738281 0.53125 -0.59375 C 0.53125 -0.46875 0.5625 -0.375 0.625 -0.3125 C 0.695312 -0.257812 0.796875 -0.234375 0.921875 -0.234375 Z M 0.921875 -0.234375 "/></g></g></g></svg>