<svg xmlns="http://www.w3.org/2000/svg" xmlns:xlink="http://www.w3.org/1999/xlink" width="100" zoomAndPan="magnify" viewBox="0 0 75 74.999997" height="100" preserveAspectRatio="xMidYMid meet" version="1.0"><defs><g/><clipPath id="a00f8f26ad"><rect x="0" width="25" y="0" height="28"/></clipPath></defs><path fill="#ffffff" d="M 73.390625 67.589844 L 53.703125 47.902344 C 61.949219 36.832031 61.082031 21.070312 51.039062 11.027344 C 40.007812 -0.00390625 22.058594 -0.00390625 11.027344 11.027344 C -0.00390625 22.058594 -0.00390625 40.007812 11.027344 51.039062 C 21.070312 61.082031 36.832031 61.949219 47.902344 53.703125 L 67.589844 73.390625 C 69.191406 74.992188 71.789062 74.992188 73.390625 73.390625 C 74.992188 71.789062 74.992188 69.191406 73.390625 67.589844 Z M 14.894531 47.167969 C 5.996094 38.273438 5.996094 23.792969 14.894531 14.894531 C 23.792969 5.996094 38.273438 5.996094 47.167969 14.894531 C 56.066406 23.792969 56.066406 38.273438 47.167969 47.167969 C 38.273438 56.066406 23.792969 56.066406 14.894531 47.167969 Z M 14.894531 47.167969 " fill-opacity="1" fill-rule="nonzero"/><path fill="#ffffff" d="M 13.445312 32.945312 C 12.519531 32.945312 11.769531 32.191406 11.769531 31.265625 C 11.769531 20.769531 20.308594 12.230469 30.804688 12.230469 C 31.730469 12.230469 32.484375 12.980469 32.484375 13.90625 C 32.484375 14.832031 31.730469 15.582031 30.804688 15.582031 C 22.15625 15.582031 15.121094 22.617188 15.121094 31.265625 C 15.121094 32.191406 14.371094 32.945312 13.445312 32.945312 Z M 13.445312 32.945312 " fill-opacity="1" fill-rule="nonzero"/><g transform="matrix(1, 0, 0, 1, 47, 46)"><g clip-path="url(#a00f8f26ad)"><g fill="#ffffff" fill-opacity="1"><g transform="translate(1.716684, 2.740201)"><g><path d="M 0.1875 0.21875 L 1.875 -1.234375 L 2.171875 -0.890625 L 0.484375 0.5625 Z M 0.1875 0.21875 "/></g></g></g><g fill="#ffffff" fill-opacity="1"><g transform="translate(2.389057, 3.519639)"><g><path d="M 1.1875 1.375 L 0.875 1.015625 L 1.625 0.375 C 1.71875 0.289062 1.773438 0.210938 1.796875 0.140625 C 1.816406 0.0664062 1.796875 -0.00390625 1.734375 -0.078125 C 1.648438 -0.179688 1.550781 -0.222656 1.4375 -0.203125 C 1.332031 -0.191406 1.207031 -0.117188 1.0625 0.015625 L 0.453125 0.53125 L 0.15625 0.1875 L 1.453125 -0.921875 L 1.6875 -0.65625 L 1.546875 -0.46875 L 1.578125 -0.453125 C 1.671875 -0.460938 1.757812 -0.445312 1.84375 -0.40625 C 1.9375 -0.375 2.019531 -0.316406 2.09375 -0.234375 C 2.226562 -0.078125 2.285156 0.0703125 2.265625 0.21875 C 2.253906 0.375 2.175781 0.519531 2.03125 0.65625 Z M 1.1875 1.375 "/></g></g></g><g fill="#ffffff" fill-opacity="1"><g transform="translate(3.723885, 5.067019)"><g><path d="M 1.296875 0.75 C 1.171875 0.863281 1.03125 0.898438 0.875 0.859375 C 0.726562 0.828125 0.578125 0.722656 0.421875 0.546875 C 0.347656 0.453125 0.285156 0.363281 0.234375 0.28125 C 0.191406 0.207031 0.160156 0.132812 0.140625 0.0625 L 0.4375 -0.1875 C 0.457031 -0.09375 0.492188 0 0.546875 0.09375 C 0.597656 0.195312 0.648438 0.28125 0.703125 0.34375 C 0.804688 0.46875 0.894531 0.5 0.96875 0.4375 C 1 0.40625 1.015625 0.375 1.015625 0.34375 C 1.023438 0.320312 1.019531 0.28125 1 0.21875 C 0.988281 0.164062 0.96875 0.09375 0.9375 0 C 0.894531 -0.132812 0.867188 -0.238281 0.859375 -0.3125 C 0.847656 -0.394531 0.859375 -0.46875 0.890625 -0.53125 C 0.929688 -0.59375 0.984375 -0.648438 1.046875 -0.703125 C 1.160156 -0.804688 1.285156 -0.84375 1.421875 -0.8125 C 1.554688 -0.789062 1.695312 -0.695312 1.84375 -0.53125 C 1.976562 -0.363281 2.070312 -0.179688 2.125 0.015625 L 1.78125 0.125 C 1.757812 0.0390625 1.734375 -0.03125 1.703125 -0.09375 C 1.671875 -0.164062 1.625 -0.234375 1.5625 -0.296875 C 1.476562 -0.398438 1.410156 -0.429688 1.359375 -0.390625 C 1.328125 -0.359375 1.316406 -0.3125 1.328125 -0.25 C 1.335938 -0.195312 1.363281 -0.0976562 1.40625 0.046875 C 1.445312 0.179688 1.46875 0.285156 1.46875 0.359375 C 1.476562 0.441406 1.46875 0.515625 1.4375 0.578125 C 1.40625 0.640625 1.359375 0.695312 1.296875 0.75 Z M 1.296875 0.75 "/></g></g></g><g fill="#ffffff" fill-opacity="1"><g transform="translate(4.733435, 6.237326)"><g><path d="M 1.6875 -0.203125 C 1.613281 -0.273438 1.535156 -0.3125 1.453125 -0.3125 C 1.367188 -0.320312 1.285156 -0.289062 1.203125 -0.21875 L 1.625 0.265625 C 1.707031 0.191406 1.753906 0.113281 1.765625 0.03125 C 1.773438 -0.0507812 1.75 -0.128906 1.6875 -0.203125 Z M 0.625 0.78125 C 0.445312 0.570312 0.363281 0.359375 0.375 0.140625 C 0.394531 -0.0664062 0.515625 -0.257812 0.734375 -0.4375 C 0.941406 -0.625 1.148438 -0.71875 1.359375 -0.71875 C 1.578125 -0.71875 1.765625 -0.625 1.921875 -0.4375 C 2.078125 -0.25 2.144531 -0.0546875 2.125 0.140625 C 2.113281 0.335938 2.015625 0.515625 1.828125 0.671875 L 1.671875 0.8125 L 0.953125 -0.015625 C 0.847656 0.078125 0.789062 0.171875 0.78125 0.265625 C 0.78125 0.367188 0.820312 0.472656 0.90625 0.578125 C 0.976562 0.660156 1.050781 0.722656 1.125 0.765625 C 1.195312 0.816406 1.285156 0.867188 1.390625 0.921875 L 1.125 1.15625 C 1.039062 1.125 0.957031 1.078125 0.875 1.015625 C 0.789062 0.953125 0.707031 0.875 0.625 0.78125 Z M 0.625 0.78125 "/></g></g></g><g fill="#ffffff" fill-opacity="1"><g transform="translate(5.933392, 7.628358)"><g><path d="M 2.09375 -0.234375 C 2.132812 -0.191406 2.160156 -0.148438 2.171875 -0.109375 L 1.828125 0.15625 C 1.804688 0.125 1.78125 0.0859375 1.75 0.046875 C 1.65625 -0.0664062 1.546875 -0.128906 1.421875 -0.140625 C 1.304688 -0.148438 1.203125 -0.113281 1.109375 -0.03125 L 0.453125 0.53125 L 0.15625 0.1875 L 1.453125 -0.921875 L 1.6875 -0.65625 L 1.484375 -0.421875 L 1.515625 -0.40625 C 1.628906 -0.425781 1.734375 -0.421875 1.828125 -0.390625 C 1.929688 -0.367188 2.019531 -0.316406 2.09375 -0.234375 Z M 2.09375 -0.234375 "/></g></g></g><g fill="#ffffff" fill-opacity="1"><g transform="translate(6.855673, 8.697499)"><g><path d="M 1.765625 -1.21875 C 1.867188 -1.320312 1.976562 -1.3125 2.09375 -1.1875 C 2.207031 -1.050781 2.210938 -0.929688 2.109375 -0.828125 C 2.046875 -0.785156 1.984375 -0.769531 1.921875 -0.78125 C 1.859375 -0.789062 1.800781 -0.828125 1.75 -0.890625 C 1.632812 -1.015625 1.640625 -1.125 1.765625 -1.21875 Z M 0.453125 0.53125 L 0.15625 0.1875 L 1.453125 -0.921875 L 1.75 -0.578125 Z M 0.453125 0.53125 "/></g></g></g><g fill="#ffffff" fill-opacity="1"><g transform="translate(7.475488, 9.41601)"><g><path d="M 2.09375 -0.234375 C 2.132812 -0.191406 2.160156 -0.148438 2.171875 -0.109375 L 1.828125 0.15625 C 1.804688 0.125 1.78125 0.0859375 1.75 0.046875 C 1.65625 -0.0664062 1.546875 -0.128906 1.421875 -0.140625 C 1.304688 -0.148438 1.203125 -0.113281 1.109375 -0.03125 L 0.453125 0.53125 L 0.15625 0.1875 L 1.453125 -0.921875 L 1.6875 -0.65625 L 1.484375 -0.421875 L 1.515625 -0.40625 C 1.628906 -0.425781 1.734375 -0.421875 1.828125 -0.390625 C 1.929688 -0.367188 2.019531 -0.316406 2.09375 -0.234375 Z M 2.09375 -0.234375 "/></g></g></g><g fill="#ffffff" fill-opacity="1"><g transform="translate(8.397769, 10.485151)"><g/></g></g><g fill="#ffffff" fill-opacity="1"><g transform="translate(8.925354, 11.096745)"><g><path d="M 0.953125 1.09375 L 1.078125 0.90625 L 1.0625 0.890625 C 0.96875 0.898438 0.867188 0.882812 0.765625 0.84375 C 0.671875 0.800781 0.585938 0.738281 0.515625 0.65625 C 0.378906 0.5 0.320312 0.347656 0.34375 0.203125 C 0.363281 0.0546875 0.453125 -0.0820312 0.609375 -0.21875 L 1.453125 -0.9375 L 1.75 -0.578125 L 0.984375 0.078125 C 0.890625 0.148438 0.835938 0.222656 0.828125 0.296875 C 0.816406 0.367188 0.835938 0.441406 0.890625 0.515625 C 0.984375 0.617188 1.078125 0.660156 1.171875 0.640625 C 1.273438 0.628906 1.40625 0.554688 1.5625 0.421875 L 2.171875 -0.09375 L 2.46875 0.25 L 1.171875 1.359375 Z M 0.953125 1.09375 "/></g></g></g><g fill="#ffffff" fill-opacity="1"><g transform="translate(10.260182, 12.644125)"><g><path d="M 1.15625 1.34375 L 0.84375 0.984375 L 1.59375 0.34375 C 1.6875 0.257812 1.742188 0.179688 1.765625 0.109375 C 1.785156 0.0351562 1.769531 -0.03125 1.71875 -0.09375 C 1.632812 -0.1875 1.539062 -0.222656 1.4375 -0.203125 C 1.332031 -0.191406 1.207031 -0.117188 1.0625 0.015625 L 0.453125 0.53125 L 0.15625 0.1875 L 1.453125 -0.921875 L 1.6875 -0.65625 L 1.546875 -0.46875 L 1.578125 -0.453125 C 1.648438 -0.472656 1.734375 -0.460938 1.828125 -0.421875 C 1.921875 -0.390625 2.003906 -0.332031 2.078125 -0.25 C 2.242188 -0.0507812 2.296875 0.132812 2.234375 0.3125 L 2.265625 0.34375 C 2.335938 0.320312 2.421875 0.328125 2.515625 0.359375 C 2.609375 0.398438 2.691406 0.460938 2.765625 0.546875 C 2.898438 0.703125 2.960938 0.847656 2.953125 0.984375 C 2.941406 1.128906 2.851562 1.273438 2.6875 1.421875 L 1.84375 2.140625 L 1.546875 1.78125 L 2.296875 1.140625 C 2.390625 1.054688 2.441406 0.976562 2.453125 0.90625 C 2.472656 0.832031 2.457031 0.757812 2.40625 0.6875 C 2.332031 0.613281 2.242188 0.582031 2.140625 0.59375 C 2.046875 0.613281 1.9375 0.675781 1.8125 0.78125 Z M 1.15625 1.34375 "/></g></g></g><g fill="#ffffff" fill-opacity="1"><g transform="translate(12.254493, 14.956001)"><g/></g></g><g fill="#ffffff" fill-opacity="1"><g transform="translate(12.782077, 15.567596)"><g><path d="M 1.296875 0.75 C 1.171875 0.863281 1.03125 0.898438 0.875 0.859375 C 0.726562 0.828125 0.578125 0.722656 0.421875 0.546875 C 0.347656 0.453125 0.285156 0.363281 0.234375 0.28125 C 0.191406 0.207031 0.160156 0.132812 0.140625 0.0625 L 0.4375 -0.1875 C 0.457031 -0.09375 0.492188 0 0.546875 0.09375 C 0.597656 0.195312 0.648438 0.28125 0.703125 0.34375 C 0.804688 0.46875 0.894531 0.5 0.96875 0.4375 C 1 0.40625 1.015625 0.375 1.015625 0.34375 C 1.023438 0.320312 1.019531 0.28125 1 0.21875 C 0.988281 0.164062 0.96875 0.09375 0.9375 0 C 0.894531 -0.132812 0.867188 -0.238281 0.859375 -0.3125 C 0.847656 -0.394531 0.859375 -0.46875 0.890625 -0.53125 C 0.929688 -0.59375 0.984375 -0.648438 1.046875 -0.703125 C 1.160156 -0.804688 1.285156 -0.84375 1.421875 -0.8125 C 1.554688 -0.789062 1.695312 -0.695312 1.84375 -0.53125 C 1.976562 -0.363281 2.070312 -0.179688 2.125 0.015625 L 1.78125 0.125 C 1.757812 0.0390625 1.734375 -0.03125 1.703125 -0.09375 C 1.671875 -0.164062 1.625 -0.234375 1.5625 -0.296875 C 1.476562 -0.398438 1.410156 -0.429688 1.359375 -0.390625 C 1.328125 -0.359375 1.316406 -0.3125 1.328125 -0.25 C 1.335938 -0.195312 1.363281 -0.0976562 1.40625 0.046875 C 1.445312 0.179688 1.46875 0.285156 1.46875 0.359375 C 1.476562 0.441406 1.46875 0.515625 1.4375 0.578125 C 1.40625 0.640625 1.359375 0.695312 1.296875 0.75 Z M 1.296875 0.75 "/></g></g></g><g fill="#ffffff" fill-opacity="1"><g transform="translate(13.791628, 16.737902)"><g><path d="M 0.953125 1.09375 L 1.078125 0.90625 L 1.0625 0.890625 C 0.96875 0.898438 0.867188 0.882812 0.765625 0.84375 C 0.671875 0.800781 0.585938 0.738281 0.515625 0.65625 C 0.378906 0.5 0.320312 0.347656 0.34375 0.203125 C 0.363281 0.0546875 0.453125 -0.0820312 0.609375 -0.21875 L 1.453125 -0.9375 L 1.75 -0.578125 L 0.984375 0.078125 C 0.890625 0.148438 0.835938 0.222656 0.828125 0.296875 C 0.816406 0.367188 0.835938 0.441406 0.890625 0.515625 C 0.984375 0.617188 1.078125 0.660156 1.171875 0.640625 C 1.273438 0.628906 1.40625 0.554688 1.5625 0.421875 L 2.171875 -0.09375 L 2.46875 0.25 L 1.171875 1.359375 Z M 0.953125 1.09375 "/></g></g></g><g fill="#ffffff" fill-opacity="1"><g transform="translate(15.126456, 18.285282)"><g><path d="M 2.09375 -0.234375 C 2.21875 -0.0859375 2.253906 0.078125 2.203125 0.265625 C 2.160156 0.460938 2.039062 0.648438 1.84375 0.828125 C 1.625 1.015625 1.414062 1.113281 1.21875 1.125 C 1.03125 1.132812 0.867188 1.0625 0.734375 0.90625 C 0.609375 0.75 0.5625 0.582031 0.59375 0.40625 L 0.578125 0.390625 L 0.390625 0.453125 L 0.15625 0.1875 L 1.9375 -1.359375 L 2.234375 -1.015625 L 1.828125 -0.65625 C 1.773438 -0.601562 1.691406 -0.535156 1.578125 -0.453125 L 1.578125 -0.4375 C 1.785156 -0.46875 1.957031 -0.398438 2.09375 -0.234375 Z M 1.703125 -0.109375 C 1.628906 -0.191406 1.546875 -0.226562 1.453125 -0.21875 C 1.359375 -0.21875 1.253906 -0.164062 1.140625 -0.0625 L 1.109375 -0.03125 C 0.960938 0.09375 0.878906 0.203125 0.859375 0.296875 C 0.847656 0.390625 0.878906 0.484375 0.953125 0.578125 C 1.015625 0.648438 1.097656 0.675781 1.203125 0.65625 C 1.304688 0.644531 1.421875 0.582031 1.546875 0.46875 C 1.671875 0.363281 1.742188 0.257812 1.765625 0.15625 C 1.796875 0.0625 1.773438 -0.0234375 1.703125 -0.109375 Z M 1.703125 -0.109375 "/></g></g></g><g fill="#ffffff" fill-opacity="1"><g transform="translate(16.411699, 19.775181)"><g><path d="M 0.890625 0.5 C 0.941406 0.5625 1.015625 0.628906 1.109375 0.703125 L 0.84375 0.921875 C 0.726562 0.859375 0.617188 0.765625 0.515625 0.640625 C 0.390625 0.503906 0.332031 0.375 0.34375 0.25 C 0.363281 0.125 0.445312 0 0.59375 -0.125 L 1.203125 -0.65625 L 1.0625 -0.8125 L 1.21875 -0.953125 L 1.515625 -0.859375 L 1.859375 -1 L 2.046875 -0.78125 L 1.78125 -0.546875 L 2.109375 -0.171875 L 1.828125 0.0625 L 1.5 -0.3125 L 0.890625 0.21875 C 0.835938 0.257812 0.8125 0.304688 0.8125 0.359375 C 0.820312 0.410156 0.847656 0.457031 0.890625 0.5 Z M 0.890625 0.5 "/></g></g></g><g fill="#ffffff" fill-opacity="1"><g transform="translate(17.293323, 20.797191)"><g><path d="M 0.453125 0.53125 L 0.15625 0.1875 L 1.453125 -0.921875 L 1.75 -0.578125 Z M 1.578125 -1.0625 L 1.59375 -1.078125 C 1.863281 -1.085938 2.054688 -1.097656 2.171875 -1.109375 L 2.515625 -0.71875 L 2.5 -0.703125 C 2.414062 -0.710938 2.296875 -0.726562 2.140625 -0.75 C 1.984375 -0.78125 1.863281 -0.804688 1.78125 -0.828125 Z M 1.578125 -1.0625 "/></g></g></g><g fill="#ffffff" fill-opacity="1"><g transform="translate(17.913139, 21.515703)"><g><path d="M 0.890625 0.5 C 0.941406 0.5625 1.015625 0.628906 1.109375 0.703125 L 0.84375 0.921875 C 0.726562 0.859375 0.617188 0.765625 0.515625 0.640625 C 0.390625 0.503906 0.332031 0.375 0.34375 0.25 C 0.363281 0.125 0.445312 0 0.59375 -0.125 L 1.203125 -0.65625 L 1.0625 -0.8125 L 1.21875 -0.953125 L 1.515625 -0.859375 L 1.859375 -1 L 2.046875 -0.78125 L 1.78125 -0.546875 L 2.109375 -0.171875 L 1.828125 0.0625 L 1.5 -0.3125 L 0.890625 0.21875 C 0.835938 0.257812 0.8125 0.304688 0.8125 0.359375 C 0.820312 0.410156 0.847656 0.457031 0.890625 0.5 Z M 0.890625 0.5 "/></g></g></g><g fill="#ffffff" fill-opacity="1"><g transform="translate(18.794763, 22.537713)"><g><path d="M 0.953125 1.09375 L 1.078125 0.90625 L 1.0625 0.890625 C 0.96875 0.898438 0.867188 0.882812 0.765625 0.84375 C 0.671875 0.800781 0.585938 0.738281 0.515625 0.65625 C 0.378906 0.5 0.320312 0.347656 0.34375 0.203125 C 0.363281 0.0546875 0.453125 -0.0820312 0.609375 -0.21875 L 1.453125 -0.9375 L 1.75 -0.578125 L 0.984375 0.078125 C 0.890625 0.148438 0.835938 0.222656 0.828125 0.296875 C 0.816406 0.367188 0.835938 0.441406 0.890625 0.515625 C 0.984375 0.617188 1.078125 0.660156 1.171875 0.640625 C 1.273438 0.628906 1.40625 0.554688 1.5625 0.421875 L 2.171875 -0.09375 L 2.46875 0.25 L 1.171875 1.359375 Z M 0.953125 1.09375 "/></g></g></g><g fill="#ffffff" fill-opacity="1"><g transform="translate(20.129591, 24.085092)"><g><path d="M 0.453125 0.53125 L 0.15625 0.1875 L 1.9375 -1.359375 L 2.234375 -1.015625 Z M 0.453125 0.53125 "/></g></g></g><g fill="#ffffff" fill-opacity="1"><g transform="translate(20.749406, 24.803604)"><g><path d="M 1.046875 -0.09375 C 0.910156 0.0195312 0.832031 0.125 0.8125 0.21875 C 0.789062 0.320312 0.816406 0.421875 0.890625 0.515625 C 0.972656 0.609375 1.0625 0.644531 1.15625 0.625 C 1.257812 0.613281 1.378906 0.550781 1.515625 0.4375 C 1.640625 0.332031 1.710938 0.226562 1.734375 0.125 C 1.765625 0.0195312 1.738281 -0.0703125 1.65625 -0.15625 C 1.582031 -0.25 1.492188 -0.285156 1.390625 -0.265625 C 1.285156 -0.253906 1.171875 -0.195312 1.046875 -0.09375 Z M 1.8125 0.78125 C 1.59375 0.96875 1.375 1.054688 1.15625 1.046875 C 0.945312 1.035156 0.757812 0.929688 0.59375 0.734375 C 0.488281 0.617188 0.421875 0.488281 0.390625 0.34375 C 0.367188 0.207031 0.382812 0.0703125 0.4375 -0.0625 C 0.5 -0.195312 0.601562 -0.328125 0.75 -0.453125 C 0.945312 -0.628906 1.148438 -0.710938 1.359375 -0.703125 C 1.578125 -0.703125 1.769531 -0.601562 1.9375 -0.40625 C 2.050781 -0.28125 2.117188 -0.144531 2.140625 0 C 2.160156 0.132812 2.144531 0.269531 2.09375 0.40625 C 2.039062 0.539062 1.945312 0.664062 1.8125 0.78125 Z M 1.8125 0.78125 "/></g></g></g></g></g></svg>