<svg xmlns="http://www.w3.org/2000/svg" xmlns:xlink="http://www.w3.org/1999/xlink" width="100" zoomAndPan="magnify" viewBox="0 0 75 74.999997" height="100" preserveAspectRatio="xMidYMid meet" version="1.0"><defs><g/><clipPath id="bb18b462d0"><path d="M 9.171875 0 L 61.671875 0 L 61.671875 75 L 9.171875 75 Z M 9.171875 0 " clip-rule="nonzero"/></clipPath><clipPath id="6687d3883e"><rect x="0" width="21" y="0" height="31"/></clipPath></defs><g clip-path="url(#bb18b462d0)"><path fill="#ffffff" d="M 61.800781 33.5 L 61.800781 36.21875 C 61.800781 49.839844 51.40625 61.078125 38.128906 62.398438 L 38.128906 69.65625 L 48.855469 69.65625 C 50.324219 69.65625 51.527344 70.859375 51.527344 72.328125 C 51.527344 73.796875 50.324219 75 48.855469 75 L 22.121094 75 C 20.652344 75 19.449219 73.796875 19.449219 72.328125 C 19.449219 70.859375 20.652344 69.65625 22.121094 69.65625 L 32.773438 69.65625 L 32.773438 62.382812 C 19.539062 61.03125 9.171875 49.808594 9.171875 36.21875 L 9.171875 33.5 C 9.171875 32.03125 10.375 30.832031 11.84375 30.832031 C 13.316406 30.832031 14.515625 32.03125 14.515625 33.5 L 14.515625 36.21875 C 14.515625 47.785156 23.921875 57.191406 35.488281 57.191406 C 47.054688 57.191406 56.460938 47.785156 56.460938 36.21875 L 56.460938 33.5 C 56.460938 32.03125 57.660156 30.832031 59.132812 30.832031 C 60.601562 30.832031 61.800781 32.015625 61.800781 33.5 Z M 35.488281 51.851562 C 43.859375 51.851562 50.65625 45.054688 50.65625 36.683594 L 50.65625 15.167969 C 50.65625 6.796875 43.859375 0 35.488281 0 C 27.117188 0 20.320312 6.796875 20.320312 15.167969 L 20.320312 36.683594 C 20.320312 45.054688 27.117188 51.851562 35.488281 51.851562 Z M 35.488281 51.851562 " fill-opacity="1" fill-rule="nonzero"/></g><g transform="matrix(1, 0, 0, 1, 25, 15)"><g clip-path="url(#6687d3883e)"><g fill="#ffffff" fill-opacity="1"><g transform="translate(17.445897, 1.273034)"><g><path d="M -0.140625 0.25 L 1.78125 1.359375 L 1.546875 1.765625 L -0.375 0.65625 Z M -0.140625 0.25 "/></g></g></g><g fill="#ffffff" fill-opacity="1"><g transform="translate(16.933995, 2.166099)"><g><path d="M -0.90625 1.578125 L -0.671875 1.171875 L 0.1875 1.65625 C 0.289062 1.71875 0.378906 1.742188 0.453125 1.734375 C 0.523438 1.734375 0.585938 1.691406 0.640625 1.609375 C 0.703125 1.492188 0.710938 1.390625 0.671875 1.296875 C 0.628906 1.203125 0.519531 1.101562 0.34375 1 L -0.34375 0.609375 L -0.125 0.21875 L 1.359375 1.0625 L 1.1875 1.359375 L 0.953125 1.296875 L 0.9375 1.328125 C 0.988281 1.421875 1.007812 1.515625 1 1.609375 C 0.988281 1.703125 0.957031 1.800781 0.90625 1.90625 C 0.800781 2.070312 0.675781 2.175781 0.53125 2.21875 C 0.382812 2.257812 0.226562 2.226562 0.0625 2.125 Z M -0.90625 1.578125 "/></g></g></g><g fill="#ffffff" fill-opacity="1"><g transform="translate(15.917742, 3.939057)"><g><path d="M -0.265625 1.484375 C -0.410156 1.398438 -0.492188 1.28125 -0.515625 1.125 C -0.546875 0.976562 -0.5 0.800781 -0.375 0.59375 C -0.3125 0.488281 -0.25 0.398438 -0.1875 0.328125 C -0.132812 0.253906 -0.078125 0.195312 -0.015625 0.15625 L 0.328125 0.34375 C 0.253906 0.394531 0.175781 0.460938 0.09375 0.546875 C 0.0078125 0.628906 -0.0507812 0.707031 -0.09375 0.78125 C -0.175781 0.925781 -0.175781 1.019531 -0.09375 1.0625 C -0.0507812 1.082031 -0.0195312 1.085938 0 1.078125 C 0.03125 1.066406 0.0703125 1.046875 0.125 1.015625 C 0.175781 0.984375 0.242188 0.941406 0.328125 0.890625 C 0.429688 0.796875 0.519531 0.734375 0.59375 0.703125 C 0.664062 0.671875 0.734375 0.660156 0.796875 0.671875 C 0.867188 0.679688 0.941406 0.707031 1.015625 0.75 C 1.148438 0.820312 1.222656 0.925781 1.234375 1.0625 C 1.253906 1.207031 1.207031 1.375 1.09375 1.5625 C 0.988281 1.738281 0.847656 1.890625 0.671875 2.015625 L 0.46875 1.71875 C 0.539062 1.664062 0.601562 1.613281 0.65625 1.5625 C 0.71875 1.507812 0.769531 1.445312 0.8125 1.375 C 0.875 1.257812 0.875 1.1875 0.8125 1.15625 C 0.78125 1.132812 0.738281 1.132812 0.6875 1.15625 C 0.632812 1.1875 0.546875 1.25 0.421875 1.34375 C 0.304688 1.425781 0.210938 1.484375 0.140625 1.515625 C 0.0664062 1.554688 0 1.570312 -0.0625 1.5625 C -0.125 1.550781 -0.191406 1.523438 -0.265625 1.484375 Z M -0.265625 1.484375 "/></g></g></g><g fill="#ffffff" fill-opacity="1"><g transform="translate(15.149135, 5.279971)"><g><path d="M 0.75 1.53125 C 0.800781 1.4375 0.8125 1.347656 0.78125 1.265625 C 0.757812 1.191406 0.695312 1.125 0.59375 1.0625 L 0.28125 1.609375 C 0.382812 1.671875 0.472656 1.691406 0.546875 1.671875 C 0.628906 1.660156 0.695312 1.613281 0.75 1.53125 Z M -0.53125 0.859375 C -0.394531 0.617188 -0.222656 0.46875 -0.015625 0.40625 C 0.191406 0.351562 0.421875 0.398438 0.671875 0.546875 C 0.910156 0.679688 1.0625 0.847656 1.125 1.046875 C 1.1875 1.242188 1.15625 1.453125 1.03125 1.671875 C 0.914062 1.878906 0.765625 2.007812 0.578125 2.0625 C 0.390625 2.113281 0.191406 2.078125 -0.015625 1.953125 L -0.203125 1.84375 L 0.34375 0.890625 C 0.21875 0.828125 0.101562 0.804688 0 0.828125 C -0.09375 0.859375 -0.175781 0.929688 -0.25 1.046875 C -0.300781 1.140625 -0.335938 1.226562 -0.359375 1.3125 C -0.378906 1.40625 -0.394531 1.503906 -0.40625 1.609375 L -0.71875 1.4375 C -0.707031 1.34375 -0.6875 1.25 -0.65625 1.15625 C -0.632812 1.070312 -0.59375 0.972656 -0.53125 0.859375 Z M -0.53125 0.859375 "/></g></g></g><g fill="#ffffff" fill-opacity="1"><g transform="translate(14.235564, 6.87379)"><g><path d="M 0.90625 1.890625 C 0.875 1.941406 0.84375 1.988281 0.8125 2.03125 L 0.453125 1.78125 C 0.484375 1.738281 0.515625 1.695312 0.546875 1.65625 C 0.617188 1.53125 0.640625 1.410156 0.609375 1.296875 C 0.585938 1.191406 0.519531 1.101562 0.40625 1.03125 L -0.34375 0.609375 L -0.125 0.21875 L 1.359375 1.0625 L 1.1875 1.359375 L 0.890625 1.265625 L 0.875 1.296875 C 0.945312 1.398438 0.984375 1.5 0.984375 1.59375 C 0.984375 1.695312 0.957031 1.796875 0.90625 1.890625 Z M 0.90625 1.890625 "/></g></g></g><g fill="#ffffff" fill-opacity="1"><g transform="translate(13.533399, 8.09879)"><g><path d="M 1.75 1.25 C 1.875 1.320312 1.894531 1.429688 1.8125 1.578125 C 1.726562 1.734375 1.625 1.773438 1.5 1.703125 C 1.4375 1.671875 1.394531 1.625 1.375 1.5625 C 1.363281 1.5 1.378906 1.429688 1.421875 1.359375 C 1.503906 1.210938 1.613281 1.175781 1.75 1.25 Z M -0.34375 0.609375 L -0.125 0.21875 L 1.359375 1.0625 L 1.140625 1.453125 Z M -0.34375 0.609375 "/></g></g></g><g fill="#ffffff" fill-opacity="1"><g transform="translate(13.061511, 8.922047)"><g><path d="M 0.90625 1.890625 C 0.875 1.941406 0.84375 1.988281 0.8125 2.03125 L 0.453125 1.78125 C 0.484375 1.738281 0.515625 1.695312 0.546875 1.65625 C 0.617188 1.53125 0.640625 1.410156 0.609375 1.296875 C 0.585938 1.191406 0.519531 1.101562 0.40625 1.03125 L -0.34375 0.609375 L -0.125 0.21875 L 1.359375 1.0625 L 1.1875 1.359375 L 0.890625 1.265625 L 0.875 1.296875 C 0.945312 1.398438 0.984375 1.5 0.984375 1.59375 C 0.984375 1.695312 0.957031 1.796875 0.90625 1.890625 Z M 0.90625 1.890625 "/></g></g></g><g fill="#ffffff" fill-opacity="1"><g transform="translate(12.359345, 10.147048)"><g/></g></g><g fill="#ffffff" fill-opacity="1"><g transform="translate(11.957676, 10.847801)"><g><path d="M -0.71875 1.265625 L -0.5 1.3125 L -0.484375 1.28125 C -0.535156 1.195312 -0.554688 1.101562 -0.546875 1 C -0.535156 0.90625 -0.503906 0.8125 -0.453125 0.71875 C -0.347656 0.53125 -0.222656 0.421875 -0.078125 0.390625 C 0.0664062 0.359375 0.226562 0.394531 0.40625 0.5 L 1.375 1.046875 L 1.140625 1.453125 L 0.265625 0.953125 C 0.160156 0.890625 0.0703125 0.863281 0 0.875 C -0.0703125 0.882812 -0.132812 0.929688 -0.1875 1.015625 C -0.25 1.128906 -0.257812 1.234375 -0.21875 1.328125 C -0.175781 1.421875 -0.0664062 1.519531 0.109375 1.625 L 0.8125 2.015625 L 0.59375 2.40625 L -0.890625 1.5625 Z M -0.71875 1.265625 "/></g></g></g><g fill="#ffffff" fill-opacity="1"><g transform="translate(10.941423, 12.620759)"><g><path d="M -0.875 1.53125 L -0.640625 1.125 L 0.21875 1.609375 C 0.320312 1.671875 0.410156 1.695312 0.484375 1.6875 C 0.554688 1.6875 0.613281 1.648438 0.65625 1.578125 C 0.71875 1.472656 0.722656 1.375 0.671875 1.28125 C 0.628906 1.195312 0.519531 1.101562 0.34375 1 L -0.34375 0.609375 L -0.125 0.21875 L 1.359375 1.0625 L 1.1875 1.359375 L 0.953125 1.296875 L 0.9375 1.328125 C 0.976562 1.410156 1 1.5 1 1.59375 C 1 1.6875 0.972656 1.78125 0.921875 1.875 C 0.785156 2.101562 0.625 2.210938 0.4375 2.203125 L 0.421875 2.234375 C 0.460938 2.316406 0.476562 2.40625 0.46875 2.5 C 0.46875 2.601562 0.441406 2.703125 0.390625 2.796875 C 0.285156 2.972656 0.164062 3.078125 0.03125 3.109375 C -0.09375 3.148438 -0.25 3.113281 -0.4375 3 L -1.40625 2.453125 L -1.171875 2.046875 L -0.3125 2.53125 C -0.207031 2.59375 -0.117188 2.617188 -0.046875 2.609375 C 0.0234375 2.609375 0.0820312 2.566406 0.125 2.484375 C 0.175781 2.398438 0.179688 2.3125 0.140625 2.21875 C 0.109375 2.125 0.0195312 2.035156 -0.125 1.953125 Z M -0.875 1.53125 "/></g></g></g><g fill="#ffffff" fill-opacity="1"><g transform="translate(9.423082, 15.269662)"><g/></g></g><g fill="#ffffff" fill-opacity="1"><g transform="translate(9.021413, 15.970415)"><g><path d="M -0.265625 1.484375 C -0.410156 1.398438 -0.492188 1.28125 -0.515625 1.125 C -0.546875 0.976562 -0.5 0.800781 -0.375 0.59375 C -0.3125 0.488281 -0.25 0.398438 -0.1875 0.328125 C -0.132812 0.253906 -0.078125 0.195312 -0.015625 0.15625 L 0.328125 0.34375 C 0.253906 0.394531 0.175781 0.460938 0.09375 0.546875 C 0.0078125 0.628906 -0.0507812 0.707031 -0.09375 0.78125 C -0.175781 0.925781 -0.175781 1.019531 -0.09375 1.0625 C -0.0507812 1.082031 -0.0195312 1.085938 0 1.078125 C 0.03125 1.066406 0.0703125 1.046875 0.125 1.015625 C 0.175781 0.984375 0.242188 0.941406 0.328125 0.890625 C 0.429688 0.796875 0.519531 0.734375 0.59375 0.703125 C 0.664062 0.671875 0.734375 0.660156 0.796875 0.671875 C 0.867188 0.679688 0.941406 0.707031 1.015625 0.75 C 1.148438 0.820312 1.222656 0.925781 1.234375 1.0625 C 1.253906 1.207031 1.207031 1.375 1.09375 1.5625 C 0.988281 1.738281 0.847656 1.890625 0.671875 2.015625 L 0.46875 1.71875 C 0.539062 1.664062 0.601562 1.613281 0.65625 1.5625 C 0.71875 1.507812 0.769531 1.445312 0.8125 1.375 C 0.875 1.257812 0.875 1.1875 0.8125 1.15625 C 0.78125 1.132812 0.738281 1.132812 0.6875 1.15625 C 0.632812 1.1875 0.546875 1.25 0.421875 1.34375 C 0.304688 1.425781 0.210938 1.484375 0.140625 1.515625 C 0.0664062 1.554688 0 1.570312 -0.0625 1.5625 C -0.125 1.550781 -0.191406 1.523438 -0.265625 1.484375 Z M -0.265625 1.484375 "/></g></g></g><g fill="#ffffff" fill-opacity="1"><g transform="translate(8.252805, 17.31133)"><g><path d="M -0.71875 1.265625 L -0.5 1.3125 L -0.484375 1.28125 C -0.535156 1.195312 -0.554688 1.101562 -0.546875 1 C -0.535156 0.90625 -0.503906 0.8125 -0.453125 0.71875 C -0.347656 0.53125 -0.222656 0.421875 -0.078125 0.390625 C 0.0664062 0.359375 0.226562 0.394531 0.40625 0.5 L 1.375 1.046875 L 1.140625 1.453125 L 0.265625 0.953125 C 0.160156 0.890625 0.0703125 0.863281 0 0.875 C -0.0703125 0.882812 -0.132812 0.929688 -0.1875 1.015625 C -0.25 1.128906 -0.257812 1.234375 -0.21875 1.328125 C -0.175781 1.421875 -0.0664062 1.519531 0.109375 1.625 L 0.8125 2.015625 L 0.59375 2.40625 L -0.890625 1.5625 Z M -0.71875 1.265625 "/></g></g></g><g fill="#ffffff" fill-opacity="1"><g transform="translate(7.236553, 19.084288)"><g><path d="M 0.90625 1.890625 C 0.8125 2.054688 0.664062 2.148438 0.46875 2.171875 C 0.28125 2.203125 0.0703125 2.148438 -0.15625 2.015625 C -0.40625 1.878906 -0.566406 1.71875 -0.640625 1.53125 C -0.722656 1.351562 -0.710938 1.175781 -0.609375 1 C -0.515625 0.832031 -0.375 0.734375 -0.1875 0.703125 L -0.171875 0.671875 L -0.296875 0.515625 L -0.125 0.21875 L 1.921875 1.390625 L 1.703125 1.78125 L 1.234375 1.515625 C 1.171875 1.472656 1.070312 1.410156 0.9375 1.328125 L 0.9375 1.34375 C 1.019531 1.53125 1.007812 1.710938 0.90625 1.890625 Z M 0.65625 1.5625 C 0.71875 1.46875 0.726562 1.378906 0.6875 1.296875 C 0.65625 1.210938 0.570312 1.132812 0.4375 1.0625 L 0.40625 1.03125 C 0.238281 0.9375 0.101562 0.894531 0 0.90625 C -0.09375 0.925781 -0.164062 0.984375 -0.21875 1.078125 C -0.269531 1.160156 -0.269531 1.242188 -0.21875 1.328125 C -0.164062 1.421875 -0.0664062 1.507812 0.078125 1.59375 C 0.222656 1.675781 0.34375 1.710938 0.4375 1.703125 C 0.53125 1.703125 0.601562 1.65625 0.65625 1.5625 Z M 0.65625 1.5625 "/></g></g></g><g fill="#ffffff" fill-opacity="1"><g transform="translate(6.258051, 20.791386)"><g><path d="M -0.171875 1 C -0.210938 1.070312 -0.25 1.160156 -0.28125 1.265625 L -0.578125 1.09375 C -0.566406 0.976562 -0.519531 0.847656 -0.4375 0.703125 C -0.34375 0.535156 -0.234375 0.4375 -0.109375 0.40625 C 0.015625 0.382812 0.15625 0.421875 0.3125 0.515625 L 1.03125 0.921875 L 1.140625 0.734375 L 1.3125 0.828125 L 1.328125 1.125 L 1.578125 1.421875 L 1.421875 1.6875 L 1.109375 1.5 L 0.875 1.921875 L 0.5625 1.75 L 0.796875 1.328125 L 0.078125 0.921875 C 0.0234375 0.890625 -0.0195312 0.878906 -0.0625 0.890625 C -0.101562 0.910156 -0.140625 0.945312 -0.171875 1 Z M -0.171875 1 "/></g></g></g><g fill="#ffffff" fill-opacity="1"><g transform="translate(5.586838, 21.962385)"><g><path d="M -0.34375 0.609375 L -0.125 0.21875 L 1.359375 1.0625 L 1.140625 1.453125 Z M 1.53125 1.125 L 1.5625 1.140625 C 1.65625 1.398438 1.726562 1.582031 1.78125 1.6875 L 1.515625 2.140625 L 1.484375 2.125 C 1.472656 2.039062 1.453125 1.921875 1.421875 1.765625 C 1.390625 1.609375 1.375 1.484375 1.375 1.390625 Z M 1.53125 1.125 "/></g></g></g><g fill="#ffffff" fill-opacity="1"><g transform="translate(5.11495, 22.785642)"><g><path d="M -0.171875 1 C -0.210938 1.070312 -0.25 1.160156 -0.28125 1.265625 L -0.578125 1.09375 C -0.566406 0.976562 -0.519531 0.847656 -0.4375 0.703125 C -0.34375 0.535156 -0.234375 0.4375 -0.109375 0.40625 C 0.015625 0.382812 0.15625 0.421875 0.3125 0.515625 L 1.03125 0.921875 L 1.140625 0.734375 L 1.3125 0.828125 L 1.328125 1.125 L 1.578125 1.421875 L 1.421875 1.6875 L 1.109375 1.5 L 0.875 1.921875 L 0.5625 1.75 L 0.796875 1.328125 L 0.078125 0.921875 C 0.0234375 0.890625 -0.0195312 0.878906 -0.0625 0.890625 C -0.101562 0.910156 -0.140625 0.945312 -0.171875 1 Z M -0.171875 1 "/></g></g></g><g fill="#ffffff" fill-opacity="1"><g transform="translate(4.443738, 23.956641)"><g><path d="M -0.71875 1.265625 L -0.5 1.3125 L -0.484375 1.28125 C -0.535156 1.195312 -0.554688 1.101562 -0.546875 1 C -0.535156 0.90625 -0.503906 0.8125 -0.453125 0.71875 C -0.347656 0.53125 -0.222656 0.421875 -0.078125 0.390625 C 0.0664062 0.359375 0.226562 0.394531 0.40625 0.5 L 1.375 1.046875 L 1.140625 1.453125 L 0.265625 0.953125 C 0.160156 0.890625 0.0703125 0.863281 0 0.875 C -0.0703125 0.882812 -0.132812 0.929688 -0.1875 1.015625 C -0.25 1.128906 -0.257812 1.234375 -0.21875 1.328125 C -0.175781 1.421875 -0.0664062 1.519531 0.109375 1.625 L 0.8125 2.015625 L 0.59375 2.40625 L -0.890625 1.5625 Z M -0.71875 1.265625 "/></g></g></g><g fill="#ffffff" fill-opacity="1"><g transform="translate(3.427485, 25.729599)"><g><path d="M -0.34375 0.609375 L -0.125 0.21875 L 1.921875 1.390625 L 1.703125 1.78125 Z M -0.34375 0.609375 "/></g></g></g><g fill="#ffffff" fill-opacity="1"><g transform="translate(2.955597, 26.552856)"><g><path d="M 0.453125 0.953125 C 0.296875 0.867188 0.164062 0.828125 0.0625 0.828125 C -0.0390625 0.835938 -0.125 0.898438 -0.1875 1.015625 C -0.25 1.117188 -0.253906 1.210938 -0.203125 1.296875 C -0.160156 1.390625 -0.0625 1.476562 0.09375 1.5625 C 0.238281 1.644531 0.359375 1.679688 0.453125 1.671875 C 0.554688 1.660156 0.632812 1.609375 0.6875 1.515625 C 0.75 1.398438 0.757812 1.296875 0.71875 1.203125 C 0.6875 1.117188 0.597656 1.035156 0.453125 0.953125 Z M -0.140625 1.96875 C -0.390625 1.832031 -0.546875 1.660156 -0.609375 1.453125 C -0.671875 1.253906 -0.632812 1.039062 -0.5 0.8125 C -0.425781 0.675781 -0.328125 0.570312 -0.203125 0.5 C -0.078125 0.425781 0.0546875 0.390625 0.203125 0.390625 C 0.359375 0.398438 0.519531 0.453125 0.6875 0.546875 C 0.914062 0.679688 1.0625 0.847656 1.125 1.046875 C 1.1875 1.253906 1.148438 1.472656 1.015625 1.703125 C 0.929688 1.847656 0.828125 1.953125 0.703125 2.015625 C 0.585938 2.085938 0.453125 2.117188 0.296875 2.109375 C 0.148438 2.109375 0.00390625 2.0625 -0.140625 1.96875 Z M -0.140625 1.96875 "/></g></g></g></g></g></svg>